<svg id="Calque_1" data-name="Calque 1" xmlns="http://www.w3.org/2000/svg" viewBox="0 0 1030.75 846.49"><defs><style>.cls-1,.cls-2{fill:#ffed00;}.cls-1{stroke:#000;stroke-miterlimit:10;stroke-width:10px;}</style></defs><path class="cls-1" d="M41.3,349.45l193,476.34a25.12,25.12,0,0,0,39.25,10L562.69,597.61A144,144,0,0,1,643,565.19l359.53-28.09A25.12,25.12,0,0,0,1023.63,502L812.78,20.06a25.13,25.13,0,0,0-41.71-6.72L538.4,272.46a144.08,144.08,0,0,1-109.3,47.79L65,314.89A25.13,25.13,0,0,0,41.3,349.45Z"/><path d="M483.86,337.23l2.77,5.72,7.49,15.49,11.08,22.9,13.57,28,14.86,30.71,15,30.89,13.93,28.81,11.82,24.43,8.47,17.49c1.34,2.77,2.61,5.57,4,8.3.06.12.11.25.17.37a4.53,4.53,0,0,0,6.16,1.61,4.62,4.62,0,0,0,1.61-6.16L592,540.11l-7.49-15.49-11.08-22.89-13.57-28L545,443l-15-30.89-13.93-28.8-11.82-24.43-8.47-17.5c-1.34-2.76-2.61-5.57-4-8.3l-.17-.36a4.53,4.53,0,0,0-6.16-1.61,4.61,4.61,0,0,0-1.61,6.15Z"/><path d="M573.49,484c35.43.71,70.85-2.65,105.93-6.69,10.09-1.64,24-3.53,31.15-11.19,3.58-3.94,2.86-9.45,1.07-14.05C702.91,432,678.86,419,657.88,415.48c-5.73-1-11.46-.89-17.27-1.13-18.08-1-37-3.43-53.19-12.55a40.76,40.76,0,0,1-14.35-13.34c-5.42-8.75-6.83-20.51-1.73-29.79,13-22.62,55.61-22.84,78.54-20.91,16.85,1.52,33.86,6.64,47.83,16.43,22.39,15.68,53.86,37.71,76.27,53.59l-7.7,4.91c-5.51-30.54-14.48-81.08-19.76-111.19l-.16-.94c-1-4.49,4.53-8.11,8.32-5.09a6.94,6.94,0,0,1,2,2.81c9.9,19.61,21.42,38.63,35.14,55.77,20.78,26,53.25,54.21,84.7,26.7,20.52-17.11,19.69-44,11.94-67.56-6.23-19.24-16.27-37.13-27.28-54.07a419.82,419.82,0,0,0-37.24-48.44c33.9,34.88,97,112.58,67.32,162.6a58.52,58.52,0,0,1-23.76,21.57c-21.13,10.49-43.54,1-60.29-13.05-25.42-21.56-43.34-50.21-58.77-79.35l-.45-.87-.05-.11s-.12-.22,0,0a4.31,4.31,0,0,0,1.05,1.24,4.07,4.07,0,0,0,6.51-3.84c.11.5.41,2.27.52,2.82,2.18,11.62,6.84,37,9,48.94,1.56,8.42,11.86,65.13,13.14,72.08l-9.85-6.91c-21-14.64-51.61-36.25-72.4-51-18.52-14.39-41.08-18.5-64.17-18.37-15.54.15-35.44,1.4-48,11-8.33,6.33-8.51,18-3.38,26.39,5.65,9.08,16.46,14,26.63,17.21a151,151,0,0,0,34,5.66c6,.33,12.11.42,18.06,1.54,18.16,3.32,35.35,12.26,47.85,25.94,8,8.85,17,24.41,7.52,35.26-8.38,8.79-23.17,10.37-34.52,11.86-23.73,2-47.22,3.55-71,3.78-11.84,0-23.66-.57-35.47-1.15Z"/><path class="cls-2" d="M3,578.22l30.65-6.54q5.52,26,42.32,26,16.8,0,25.85-6.67t9-16.55a23.26,23.26,0,0,0-4.11-13.27q-4.09-6.09-17.57-9.55L55.73,543q-17.19-4.5-25.39-10.2a39.89,39.89,0,0,1-13.15-16.1,51,51,0,0,1-4.94-22.18q0-23.48,17.44-37.64t44.64-14.18q22.56,0,40.33,9.88t22.64,28l-30,7.44Q100.36,468.05,75,468.06q-14.76,0-22.51,6.15a19.16,19.16,0,0,0-7.76,15.65q0,15,24.37,21l29.75,7.44q27.06,6.79,36.3,20.07a50.24,50.24,0,0,1,9.23,29.31q0,25.77-19.43,40.59T74.58,623.11q-26,0-45.59-10.9T3,578.22Z"/><path d="M3.82,581.12,30.6,575.4l3.87-.82-3.69-2.1a33.86,33.86,0,0,0,7.52,15.34,35.15,35.15,0,0,0,14.49,9.43,65.31,65.31,0,0,0,20.8,3.44c8.09.2,16.41-.55,23.92-3.77,6.79-2.91,12.82-8.27,15.26-15.39,2.62-7.68.59-17-4.46-23.22-4.38-5.39-11.86-7.84-18.32-9.53l-7.14-1.86L58,540.44c-11.52-3-23.91-6.39-32-15.64-10.55-12-13.19-30.29-8.56-45.18,4.19-13.45,15.56-23.74,28.55-28.93a72.39,72.39,0,0,1,22.75-4.87,89.19,89.19,0,0,1,25.6,2.06c14.46,3.42,29.12,11,36.43,24.2a39.91,39.91,0,0,1,3.68,9.22l2.1-3.7-26.28,6.52-3.73.92,3.69,2.1a31.89,31.89,0,0,0-11.34-15.65c-5.55-4-12.41-5.7-19.13-6.25-8-.65-16.49.06-23.85,3.41-6.72,3.06-12.34,9.18-13.71,16.57a20.25,20.25,0,0,0,4.33,17.33c4.46,5.23,11.31,8.15,17.74,10.12,7.65,2.34,15.57,4,23.33,5.94,9.61,2.4,19.46,4.53,28.42,8.72a57.14,57.14,0,0,1,9,5.14l.88.64.12.09.48.38c.61.49,1.22,1,1.8,1.54a34.08,34.08,0,0,1,3,3l.61.74c.44.54,0,0,.28.36.58.8,1.13,1.61,1.66,2.44a52.68,52.68,0,0,1,3.07,5.49,46.41,46.41,0,0,1,3.76,11.54,52.29,52.29,0,0,1-.84,22.66,43.38,43.38,0,0,1-9.44,17.9c-9.83,11.07-24,17.06-38.34,19.49a108.38,108.38,0,0,1-25.7,1,91.46,91.46,0,0,1-24.47-5.07A63.61,63.61,0,0,1,22.29,604a49.49,49.49,0,0,1-12.65-16.5,60.52,60.52,0,0,1-3.73-10.06c-1-3.72-6.83-2.14-5.78,1.59A61.48,61.48,0,0,0,9.92,599.5a56,56,0,0,0,16.44,14.66c14.85,8.71,32.28,12.1,49.34,12,16-.14,32.38-3.35,46.07-12A57.34,57.34,0,0,0,138.14,599a49.42,49.42,0,0,0,8.2-19.86c2.84-15.87-.44-33.56-11.48-45.8-9-10-23-14.78-35.63-18l-23.83-6c-3.13-.78-6.3-1.5-9.39-2.44a43,43,0,0,1-9.57-4q-1-.58-1.95-1.23l-.85-.61c-.39-.29.3.25-.07-.06l-.55-.45c-.49-.41-1-.85-1.41-1.31l-.72-.78c-.12-.13-.71-.87-.35-.39a16.79,16.79,0,0,1-1.91-3.21c.3.64-.1-.29-.15-.43s-.18-.54-.26-.81c-.17-.6-.28-1.2-.4-1.81s0-.06,0,0c0-.16,0-.33,0-.5s-.05-.59-.06-.89a22.14,22.14,0,0,1,.08-2.7,17.46,17.46,0,0,1,1.16-4.5c2.7-6.26,8.76-9.69,15.25-11.18a48.09,48.09,0,0,1,22.39.28c.73.2,1.45.41,2.16.65.39.13.79.27,1.18.42.14,0,1.09.43.71.27a27.75,27.75,0,0,1,4,2.1c.51.33,1.37.92,1.6,1.11s1,.86,1.47,1.25,1,1,1.52,1.54c.23.25.45.5.67.76l.37.45c.32.4,0,0,.16.2a28.85,28.85,0,0,1,4,7.57,3.08,3.08,0,0,0,3.69,2.1l26.28-6.51,3.73-.93a3,3,0,0,0,2.1-3.69,46.92,46.92,0,0,0-10.48-19.23,57.62,57.62,0,0,0-19-13.29c-15.86-7.18-33.9-9-51-6.39C44.71,443.1,29.87,450.11,20.22,462c-10.13,12.53-13.14,29.54-9.53,45.12a50.16,50.16,0,0,0,11.8,22.76c5,5.33,11.31,8.71,18,11.35,8.59,3.39,17.69,5.44,26.61,7.77l21.25,5.53a47.75,47.75,0,0,1,9.84,3.51c.68.35,1.35.73,2,1.13.31.19.61.39.9.59l.49.35c.43.31-.5-.43.2.15a17.25,17.25,0,0,1,1.41,1.29c.21.22.41.45.61.68.06.06.39.49.16.19s.2.3.2.3a20.87,20.87,0,0,1,3.68,10.91A15.94,15.94,0,0,1,105.5,583c-3.58,5.76-10,8.92-16.34,10.41-7.58,1.79-15.75,1.69-23.45.76-1.31-.16-3.07-.45-4.64-.78s-3.13-.73-4.66-1.21c-.68-.21-1.35-.44-2-.68l-1-.37-.55-.22c-.49-.21.63.28-.22-.1a35.21,35.21,0,0,1-3.76-1.95c-.55-.32-1.09-.67-1.61-1-.26-.17-.52-.35-.77-.54l-.43-.32c-.39-.3.51.44-.13-.1a33.22,33.22,0,0,1-2.88-2.69c-.41-.44-.81-.9-1.19-1.37l-.33-.41s.28.37.08.09-.46-.63-.68-1a28.59,28.59,0,0,1-2-3.43c-.14-.28-.27-.56-.4-.85s-.39-.92-.18-.4c-.24-.6-.47-1.2-.68-1.81a39.4,39.4,0,0,1-1.13-4.13,3.05,3.05,0,0,0-3.69-2.1L6.09,574.51l-3.87.82a3,3,0,0,0,1.6,5.79Z"/><path d="M227.17,617.79H207V559.43q0-9.43-4-13.28a13.17,13.17,0,0,0-9.4-3.84,18.21,18.21,0,0,0-14.39,6.79q-5.83,6.81-5.83,22.43v46.26H153.27V497.28H173.4v47Q180.9,525,199.71,525q27.45,0,27.46,31.52Z"/><path d="M227.17,617.42H207l.37.37V560.64c0-5.78-.5-12.08-5.42-15.87-7.8-6-19.14-1.88-24.24,5.66-4.2,6.21-4.73,14.4-4.73,21.66v45.7l.38-.37H153.27l.37.37V499.12a5.56,5.56,0,0,0,0-1.63.74.74,0,0,1,0-.21l-.37.37H173.4l-.38-.37v47a.38.38,0,0,0,.74.1c2.57-6.52,6.65-12.6,13-16,5.87-3.15,13-3.6,19.47-2.5a23,23,0,0,1,14.09,7.55c3.9,4.64,5.58,10.77,6.2,16.7.64,6.13.31,12.45.31,18.61v42.13c0,2.19-.12,4.42,0,6.6,0,.11,0,.22,0,.32a.38.38,0,0,0,.75,0v-47.7c0-6.33.33-12.8-.23-19.12-.53-6-2-12.13-5.66-17a22.77,22.77,0,0,0-13.05-8.35,33.54,33.54,0,0,0-19.14.72,27,27,0,0,0-14.08,12.75,43.81,43.81,0,0,0-2.34,5.07l.73.1v-47a.38.38,0,0,0-.37-.38H153.27a.39.39,0,0,0-.38.38v115.6a43.35,43.35,0,0,0,0,4.7,1.47,1.47,0,0,1,0,.21.39.39,0,0,0,.38.38H173.4a.38.38,0,0,0,.37-.38V574.71c0-5.6,0-11.22,1.49-16.67a21.47,21.47,0,0,1,6.44-10.92,17.46,17.46,0,0,1,14.52-4.19,12.33,12.33,0,0,1,9.63,9.2,30.88,30.88,0,0,1,.81,7.9v28.71c0,9.52-.1,19,0,28.56v.49a.39.39,0,0,0,.38.38h20.13A.38.38,0,0,0,227.17,617.42Z"/><path d="M286.23,619.65q-19.77,0-30.19-14.22a53.65,53.65,0,0,1-10.42-32.58q0-19.77,11.52-32.93t30.42-13.15q17.91,0,29.44,12.8t11.52,33.28q0,21.1-12,33.95T286.23,619.65Zm.71-16.6q20.3,0,20.3-30.29,0-13.68-4.85-21.58t-14.92-7.9q-10.43,0-15.45,8.16t-5,21.68q0,14.57,5.35,22.25A16.87,16.87,0,0,0,286.94,603.05Z"/><path d="M286.23,619.27c-8.63,0-17.25-2.19-24-7.78-7-5.79-11.73-14.51-14.17-23.15-5-17.82-1.36-39,12.85-51.69,13.1-11.71,34.87-12.85,49.22-2.73,15.61,11,20.21,31.42,17.19,49.45a44.54,44.54,0,0,1-11,23.16,39.33,39.33,0,0,1-23.07,12.24,48,48,0,0,1-7,.5.38.38,0,0,0,0,.75c9.23,0,18.21-2.62,25.55-8.33a43.33,43.33,0,0,0,14.69-21.45A61.36,61.36,0,0,0,327.81,561a44.88,44.88,0,0,0-12.26-23.46,38.41,38.41,0,0,0-23.66-10.91c-9-.84-18.51.78-26.29,5.61-16.53,10.25-22.4,30.95-19.74,49.37a52.41,52.41,0,0,0,11.67,26.35,34.8,34.8,0,0,0,21.84,11.63,50.68,50.68,0,0,0,6.86.47A.38.38,0,0,0,286.23,619.27Z"/><path d="M286.94,603.42a19.18,19.18,0,0,0,11.34-3.32,20.16,20.16,0,0,0,6.75-9.51,49.13,49.13,0,0,0,2.57-16.19c.12-6.36-.38-12.95-2.7-18.93-1.84-4.78-4.9-9.09-9.75-11.14a20.84,20.84,0,0,0-16.2.3c-4.95,2.29-8,7-9.81,12-2.29,6.24-2.75,13.09-2.47,19.68.28,6.36,1.36,13.08,4.84,18.54a18,18,0,0,0,15.43,8.61.38.38,0,0,0,0-.75,17.08,17.08,0,0,1-14.29-7.49c-3-4.3-4.32-9.56-4.9-14.7A58,58,0,0,1,268.6,561c1.18-5,3.35-10.36,7.46-13.73,4.35-3.56,10.64-4.39,16-3.18s8.94,4.76,11.22,9.49c2.55,5.28,3.39,11.28,3.55,17.09a59.17,59.17,0,0,1-1.56,16.57c-1.13,4.31-3.09,8.58-6.54,11.51a18.06,18.06,0,0,1-11.8,3.88A.38.38,0,0,0,286.94,603.42Z"/><path d="M367.46,678H347V528.62h19.25v15.54q9.27-17.4,27.28-17.39,14.83,0,23.66,12.89T426,572.59q0,19-8.43,33t-25.12,14q-17.22,0-25-14.31Zm0-96.79q0,9.71,5.78,16.11t12.84,6.4q9.63,0,14.09-8.43t4.45-21.41q0-13.59-4.5-22.11t-13.42-8.52q-8,0-13.64,7t-5.6,18.28Z"/><path d="M367.46,677.66H347l.38.37V530.86a7.8,7.8,0,0,0,0-2,1,1,0,0,1,0-.25L347,529h19.25l-.38-.38v15.54a.38.38,0,0,0,.7.19c2.82-5.24,6.61-10,11.73-13.17a29.33,29.33,0,0,1,16.35-4,26.65,26.65,0,0,1,16.63,6.35,38.88,38.88,0,0,1,10.27,15.17,61.52,61.52,0,0,1,4,19.88,73.79,73.79,0,0,1-2,21.67c-3,11.67-9.45,24-21.72,27.73a32.91,32.91,0,0,1-20-.37,26.06,26.06,0,0,1-14-12.44.38.38,0,0,0-.7.19V678a.38.38,0,0,0,.75,0V605.34l-.7.19a27.11,27.11,0,0,0,12.12,11.82,32.89,32.89,0,0,0,18,2.36,27.4,27.4,0,0,0,15.37-7.22c4.66-4.46,7.75-10.5,9.93-16.5a67.91,67.91,0,0,0,3.81-21.83,69.92,69.92,0,0,0-2.74-21.77c-3.63-11.88-11.83-23.32-24.77-25.55a31.43,31.43,0,0,0-17.26,1.81,30.41,30.41,0,0,0-13.05,11A45.54,45.54,0,0,0,365.9,544l.69.19V528.62a.38.38,0,0,0-.37-.37H347a.38.38,0,0,0-.37.37V672c0,1.91-.19,3.93,0,5.83a2.09,2.09,0,0,1,0,.25.38.38,0,0,0,.37.38h20.49A.38.38,0,0,0,367.46,677.66Z"/><path d="M367.08,581.24A24.25,24.25,0,0,0,373,597.62c4,4.41,9.25,7,15.27,6.4a15.42,15.42,0,0,0,11.9-7.87c3-5.2,4.24-11.31,4.68-17.23a60.37,60.37,0,0,0-1.67-20.39c-1.38-5-3.73-10.29-8.18-13.27a16,16,0,0,0-14.76-1.09c-5.19,2.18-9,7-11,12.12-1.87,4.74-2.09,9.73-2.09,14.76v10.19a.38.38,0,0,0,.75,0c0-5.68-.39-11.53.24-17.18a25.45,25.45,0,0,1,6.87-15.35,16.36,16.36,0,0,1,15.37-4.66c5.19,1.22,8.48,5.37,10.51,10.07a47.51,47.51,0,0,1,3.4,17.49,54.28,54.28,0,0,1-2.2,18.32c-1.6,4.94-4.25,9.9-9.19,12.12a16.21,16.21,0,0,1-17.52-3.14,23.39,23.39,0,0,1-7.48-17.67A.38.38,0,0,0,367.08,581.24Z"/><path class="cls-2" d="M589.89,613.83H562.13L502,512.53,497.42,505q-1.4-2.33-4.3-7.32V613.83h-23V455.25h31.6l55.53,93.41q.69,1.15,10.11,17.08V455.25h22.53Z"/><path d="M589.89,610.83H562.13l2.59,1.49-6.81-11.46L542,574.12l-18.58-31.28-14.51-24.42c-3.23-5.44-6.5-10.85-9.72-16.29-1.18-2-2.34-4-3.51-6a3,3,0,0,0-5.59,1.52V609.08c0,1.51-.1,3,0,4.55a1.33,1.33,0,0,1,0,.2l3-3h-23l3,3V461.74c0-2.06.11-4.15,0-6.21a2.62,2.62,0,0,1,0-.28l-3,3h31.6l-2.59-1.48,6.75,11.36,15.61,26.26,17.66,29.7,12.92,21.73q4.38,7.36,8.73,14.73l4,6.7a3,3,0,0,0,5.59-1.51V459.8c0-1.44.1-2.92,0-4.36a1.2,1.2,0,0,1,0-.19l-3,3h22.53l-3-3v139c0,6.42-.16,12.87,0,19.3a2.43,2.43,0,0,1,0,.27c0,3.86,6,3.87,6,0v-139c0-6.43.17-12.88,0-19.3v-.28a3,3,0,0,0-3-3H567.36a3,3,0,0,0-3,3V561.19c0,1.44-.1,2.92,0,4.36v.19l5.59-1.52q-7-11.85-14-23.68l-18.63-31.33-21.89-36.83-7.76-13.05c-1.09-1.84-2.12-3.76-3.3-5.55s-3.24-1.53-5.14-1.53H470.12a3,3,0,0,0-3,3v139c0,6.42-.17,12.87,0,19.3v.27a3,3,0,0,0,3,3h23a3,3,0,0,0,3-3V502.41c0-1.51.1-3.05,0-4.55v-.2l-5.59,1.51c4.71,8.09,9.56,16.1,14.34,24.15L524.3,556l22.14,37.27,12.74,21.44a3.64,3.64,0,0,0,3.18,2.09c2.2.07,4.41,0,6.6,0h20.93C593.76,616.83,593.76,610.83,589.89,610.83Z"/><path class="cls-2" d="M719.78,613.83H695.15V588.51q-10,27.76-37.06,27.76-16,0-25.44-9.93t-9.41-27.71V496.5H650.3v76.44q0,12.66,5.58,16.61t10.92,4q8.6,0,17.54-7.72t8.95-32.94V496.5h26.49Z"/><path d="M719.78,610.83H695.15l3,3V588.51a3,3,0,0,0-2.6-3,3,3,0,0,0-3.29,2.15,50.94,50.94,0,0,1-6,11.69,32,32,0,0,1-3.6,4.34c-.67.69-1.37,1.34-2.09,2-.34.29-.68.58-1,.86s.55-.4-.22.17c-.23.18-.47.35-.72.52-6.66,4.72-14.26,6.28-22.44,6a34.08,34.08,0,0,1-13.27-3,28.09,28.09,0,0,1-9.88-8c-5.18-6.74-6.81-15.23-6.82-23.69q0-10.57,0-21.15V504.78c0-2.63.11-5.3,0-7.93,0-.12,0-.24,0-.35l-3,3H650.3l-3-3v74c0,6.92,0,15.09,5.33,20.27a21.34,21.34,0,0,0,19.65,5.1,30.14,30.14,0,0,0,9.87-4.58,29.35,29.35,0,0,0,6.74-6c3.13-4,4.81-9,5.81-14a94.45,94.45,0,0,0,1.59-18.47V496.5l-3,3h26.49l-3-3V599.4c0,4.73-.16,9.5,0,14.23v.2c0,3.86,6,3.87,6,0V510.93c0-4.73.15-9.5,0-14.23a1.33,1.33,0,0,1,0-.2,3,3,0,0,0-3-3H693.29a3,3,0,0,0-3,3v54.27c0,8.35-.17,16.69-2.9,24.62-.19.55-.39,1.09-.61,1.63s.1-.19-.13.32l-.41.86a22.5,22.5,0,0,1-1.59,2.77l-.42.59c-.33.47.26-.28-.11.14s-.65.76-1,1.11a25.84,25.84,0,0,1-3.26,2.74c-5.08,3.68-11.21,6.24-17.27,4.21a19.83,19.83,0,0,1-4.8-2.52c-.17-.12-.82-.67-.37-.26-.18-.16-.37-.32-.55-.5s-.34-.37-.52-.55.13.23-.24-.3a15.35,15.35,0,0,1-.85-1.4c-.13-.26-.25-.51-.37-.77s0,0,0,0c-.08-.19-.15-.38-.22-.57a23.74,23.74,0,0,1-1-4.07,46.23,46.23,0,0,1-.38-7.14V496.5a3,3,0,0,0-3-3H623.24a3,3,0,0,0-3,3v58.66q0,11.63,0,23.26c0,8.52,1.51,17.31,6.1,24.63a34.46,34.46,0,0,0,24.11,15.62c9.24,1.4,19.08.44,27.45-3.92,7.62-4,13.38-10.76,17.15-18.38a66.54,66.54,0,0,0,3-7.07l-5.89-.79v25.32a3,3,0,0,0,3,3h24.63C723.64,616.83,723.64,610.83,719.78,610.83Z"/><path class="cls-2" d="M778.56,693.1H751.61V496.5h25.32v20.44q12.21-22.89,35.9-22.88,19.51,0,31.14,17t11.61,43.33q0,25-11.09,43.45t-33,18.47q-22.65,0-32.88-18.82Zm0-127.36q0,12.76,7.61,21.2t16.9,8.42q12.67,0,18.53-11.1t5.87-28.17q0-17.88-5.92-29.1t-17.66-11.21q-10.57,0-17.95,9.18t-7.38,24Z"/><path d="M778.56,690.1H751.61l3,3V504.51c0-2.55.12-5.14,0-7.69,0-.11,0-.22,0-.32l-3,3h25.32l-3-3v20.44c0,2.91,4.16,4.18,5.59,1.52,3.57-6.64,8.29-12.6,14.55-16.43a35.81,35.81,0,0,1,20.25-4.95,32.41,32.41,0,0,1,19.9,7.45,48.71,48.71,0,0,1,13,18.89,78.63,78.63,0,0,1,5.22,25.36A95.07,95.07,0,0,1,850,576.51a67.15,67.15,0,0,1-10.34,23.14,32.44,32.44,0,0,1-16.68,12,41.49,41.49,0,0,1-22.46.24,30.26,30.26,0,0,1-16.39-11.22,42.65,42.65,0,0,1-3-4.75c-1.45-2.64-5.59-1.41-5.59,1.51V681.3c0,3.87-.14,7.77,0,11.63v.17c0,3.86,6,3.87,6,0V601.37c0-1.24.09-2.51,0-3.75v-.17L776,599c3.87,7.06,9.61,13.14,17,16.52a46.22,46.22,0,0,0,25.53,3.28A38.24,38.24,0,0,0,840,608.42c6.42-6.24,10.66-14.64,13.63-23a91.66,91.66,0,0,0,5-29.27A94.21,94.21,0,0,0,854.83,527c-5-16.22-16.33-32-34-35.16a43.9,43.9,0,0,0-24.52,2.4,42.86,42.86,0,0,0-18.64,15.72,59.53,59.53,0,0,0-3.34,5.52l5.59,1.51V496.5a3,3,0,0,0-3-3H751.61a3,3,0,0,0-3,3V685.08c0,2.57-.06,5.13,0,7.69v.33a3,3,0,0,0,3,3h26.95C782.42,696.1,782.43,690.1,778.56,690.1Z"/><path d="M775.56,565.74c0,8.54,2.62,16.74,8.36,23.18s13.44,10.23,22,9.29a23,23,0,0,0,10.53-3.63A24.46,24.46,0,0,0,824,586.1c4-7.24,5.66-15.51,6.23-23.68A81.63,81.63,0,0,0,828,535.36c-2-7.33-5.52-14.87-12-19.19s-15.38-4.3-22.38-1.15c-7.42,3.33-12.73,10.5-15.47,18-2.13,5.85-2.54,12-2.54,18.21v14.53c0,3.86,6,3.86,6,0V555.52a102.68,102.68,0,0,1,.37-12.89,30.53,30.53,0,0,1,8.44-18.12A18.65,18.65,0,0,1,808,519.23a14.58,14.58,0,0,1,7.32,4.17,26.46,26.46,0,0,1,5,7.93c2.89,6.93,3.92,14.52,4.12,22,.22,8-.41,16-2.95,23.63-2,5.93-5.1,11.57-10.94,14.08.29-.12-.51.19-.63.23-.36.13-.72.24-1.09.35a23,23,0,0,1-2.46.55c-.28,0-1.36.15-2,.18a24.86,24.86,0,0,1-2.73,0,18.45,18.45,0,0,1-9-3.51A26.75,26.75,0,0,1,782,571.25a34.79,34.79,0,0,1-.4-5.51C781.54,561.88,775.54,561.87,775.56,565.74Z"/></svg>